<?xml version="1.0" encoding="UTF-8"?>
<svg xmlns="http://www.w3.org/2000/svg" xmlns:xlink="http://www.w3.org/1999/xlink" width="29" height="50" viewBox="0 0 29 50">
  <title>app-development</title>
  <desc>Created using Figma</desc>
  <g id="Canvas" transform="translate(250 15)">
    <g id="app-development">
      <g id="Vector">
        <use xlink:href="#path0_fill" transform="translate(-249 -14)" fill="#222222"></use>
        <use xlink:href="#path1_stroke" transform="translate(-249 -14)" fill="#FFFFFF"></use>
      </g>
      <g id="Vector">
        <use xlink:href="#path2_fill" transform="translate(-243.783 6.86956)" fill="#27B1F2"></use>
      </g>
    </g>
  </g>
  <defs>
    <path id="path0_fill" fill-rule="evenodd" d="M 22.9565 48L 4.17391 48C 1.86887 48 0 46.1311 0 43.8261L 0 4.17391C 0 1.86887 1.86887 0 4.17391 0L 22.9565 0C 25.2616 0 27.1304 1.86887 27.1304 4.17391L 27.1304 43.8261C 27.1304 46.1311 25.2616 48 22.9565 48ZM 25.0435 4.17391C 25.0435 3.02191 24.1085 2.08696 22.9565 2.08696L 4.17391 2.08696C 3.02191 2.08696 2.08696 3.02191 2.08696 4.17391L 2.08696 8.34783L 25.0435 8.34783L 25.0435 4.17391ZM 25.0435 10.4348L 2.08696 10.4348L 2.08696 37.5652L 25.0435 37.5652L 25.0435 10.4348ZM 25.0435 39.6522L 2.08696 39.6522L 2.08696 43.8261C 2.08696 44.9781 3.02191 45.913 4.17391 45.913L 22.9565 45.913C 24.1085 45.913 25.0435 44.9781 25.0435 43.8261L 25.0435 39.6522ZM 13.5652 44.8696C 12.4132 44.8696 11.4783 43.9346 11.4783 42.7826C 11.4783 41.6306 12.4132 40.6957 13.5652 40.6957C 14.7172 40.6957 15.6522 41.6306 15.6522 42.7826C 15.6522 43.9346 14.7172 44.8696 13.5652 44.8696ZM 6.26087 13.5652L 8.34783 13.5652C 8.92487 13.5652 9.3913 14.0327 9.3913 14.6087L 9.3913 16.6957C 9.3913 17.2717 8.92487 17.7391 8.34783 17.7391L 6.26087 17.7391C 5.68383 17.7391 5.21739 17.2717 5.21739 16.6957L 5.21739 14.6087C 5.21739 14.0327 5.68383 13.5652 6.26087 13.5652ZM 6.26087 28.1739L 8.34783 28.1739C 8.92487 28.1739 9.3913 28.6403 9.3913 29.2174L 9.3913 31.3043C 9.3913 31.8814 8.92487 32.3478 8.34783 32.3478L 6.26087 32.3478C 5.68383 32.3478 5.21739 31.8814 5.21739 31.3043L 5.21739 29.2174C 5.21739 28.6403 5.68383 28.1739 6.26087 28.1739ZM 12.5217 13.5652L 14.6087 13.5652C 15.1857 13.5652 15.6522 14.0327 15.6522 14.6087L 15.6522 16.6957C 15.6522 17.2717 15.1857 17.7391 14.6087 17.7391L 12.5217 17.7391C 11.9447 17.7391 11.4783 17.2717 11.4783 16.6957L 11.4783 14.6087C 11.4783 14.0327 11.9447 13.5652 12.5217 13.5652ZM 12.5217 20.8696L 14.6087 20.8696C 15.1857 20.8696 15.6522 21.337 15.6522 21.913L 15.6522 24C 15.6522 24.577 15.1857 25.0435 14.6087 25.0435L 12.5217 25.0435C 11.9447 25.0435 11.4783 24.577 11.4783 24L 11.4783 21.913C 11.4783 21.337 11.9447 20.8696 12.5217 20.8696ZM 12.5217 28.1739L 14.6087 28.1739C 15.1857 28.1739 15.6522 28.6403 15.6522 29.2174L 15.6522 31.3043C 15.6522 31.8814 15.1857 32.3478 14.6087 32.3478L 12.5217 32.3478C 11.9447 32.3478 11.4783 31.8814 11.4783 31.3043L 11.4783 29.2174C 11.4783 28.6403 11.9447 28.1739 12.5217 28.1739ZM 18.7826 13.5652L 20.8696 13.5652C 21.4466 13.5652 21.913 14.0327 21.913 14.6087L 21.913 16.6957C 21.913 17.2717 21.4466 17.7391 20.8696 17.7391L 18.7826 17.7391C 18.2056 17.7391 17.7391 17.2717 17.7391 16.6957L 17.7391 14.6087C 17.7391 14.0327 18.2056 13.5652 18.7826 13.5652ZM 18.7826 20.8696L 20.8696 20.8696C 21.4466 20.8696 21.913 21.337 21.913 21.913L 21.913 24C 21.913 24.577 21.4466 25.0435 20.8696 25.0435L 18.7826 25.0435C 18.2056 25.0435 17.7391 24.577 17.7391 24L 17.7391 21.913C 17.7391 21.337 18.2056 20.8696 18.7826 20.8696ZM 10.4348 4.17391L 16.6957 4.17391C 17.2727 4.17391 17.7391 4.64139 17.7391 5.21739C 17.7391 5.79339 17.2727 6.26087 16.6957 6.26087L 10.4348 6.26087C 9.85774 6.26087 9.3913 5.79339 9.3913 5.21739C 9.3913 4.64139 9.85774 4.17391 10.4348 4.17391Z"></path>
    <path id="path1_stroke" d="M 2.08696 8.34783L 1.93696 8.34783L 1.93696 8.49783L 2.08696 8.49783L 2.08696 8.34783ZM 25.0435 8.34783L 25.0435 8.49783L 25.1935 8.49783L 25.1935 8.34783L 25.0435 8.34783ZM 25.0435 10.4348L 25.1935 10.4348L 25.1935 10.2848L 25.0435 10.2848L 25.0435 10.4348ZM 2.08696 10.4348L 2.08696 10.2848L 1.93696 10.2848L 1.93696 10.4348L 2.08696 10.4348ZM 2.08696 37.5652L 1.93696 37.5652L 1.93696 37.7152L 2.08696 37.7152L 2.08696 37.5652ZM 25.0435 37.5652L 25.0435 37.7152L 25.1935 37.7152L 25.1935 37.5652L 25.0435 37.5652ZM 25.0435 39.6522L 25.1935 39.6522L 25.1935 39.5022L 25.0435 39.5022L 25.0435 39.6522ZM 2.08696 39.6522L 2.08696 39.5022L 1.93696 39.5022L 1.93696 39.6522L 2.08696 39.6522ZM 22.9565 47.85L 4.17391 47.85L 4.17391 48.15L 22.9565 48.15L 22.9565 47.85ZM 4.17391 47.85C 1.95171 47.85 0.15 46.0483 0.15 43.8261L -0.15 43.8261C -0.15 46.214 1.78603 48.15 4.17391 48.15L 4.17391 47.85ZM 0.15 43.8261L 0.15 4.17391L -0.15 4.17391L -0.15 43.8261L 0.15 43.8261ZM 0.15 4.17391C 0.15 1.95171 1.95171 0.15 4.17391 0.15L 4.17391 -0.15C 1.78603 -0.15 -0.15 1.78603 -0.15 4.17391L 0.15 4.17391ZM 4.17391 0.15L 22.9565 0.15L 22.9565 -0.15L 4.17391 -0.15L 4.17391 0.15ZM 22.9565 0.15C 25.1787 0.15 26.9804 1.95171 26.9804 4.17391L 27.2804 4.17391C 27.2804 1.78603 25.3444 -0.15 22.9565 -0.15L 22.9565 0.15ZM 26.9804 4.17391L 26.9804 43.8261L 27.2804 43.8261L 27.2804 4.17391L 26.9804 4.17391ZM 26.9804 43.8261C 26.9804 46.0483 25.1787 47.85 22.9565 47.85L 22.9565 48.15C 25.3444 48.15 27.2804 46.214 27.2804 43.8261L 26.9804 43.8261ZM 25.1935 4.17391C 25.1935 2.93907 24.1914 1.93696 22.9565 1.93696L 22.9565 2.23696C 24.0257 2.23696 24.8935 3.10476 24.8935 4.17391L 25.1935 4.17391ZM 22.9565 1.93696L 4.17391 1.93696L 4.17391 2.23696L 22.9565 2.23696L 22.9565 1.93696ZM 4.17391 1.93696C 2.93907 1.93696 1.93696 2.93907 1.93696 4.17391L 2.23696 4.17391C 2.23696 3.10476 3.10476 2.23696 4.17391 2.23696L 4.17391 1.93696ZM 1.93696 4.17391L 1.93696 8.34783L 2.23696 8.34783L 2.23696 4.17391L 1.93696 4.17391ZM 2.08696 8.49783L 25.0435 8.49783L 25.0435 8.19783L 2.08696 8.19783L 2.08696 8.49783ZM 25.1935 8.34783L 25.1935 4.17391L 24.8935 4.17391L 24.8935 8.34783L 25.1935 8.34783ZM 25.0435 10.2848L 2.08696 10.2848L 2.08696 10.5848L 25.0435 10.5848L 25.0435 10.2848ZM 1.93696 10.4348L 1.93696 37.5652L 2.23696 37.5652L 2.23696 10.4348L 1.93696 10.4348ZM 2.08696 37.7152L 25.0435 37.7152L 25.0435 37.4152L 2.08696 37.4152L 2.08696 37.7152ZM 25.1935 37.5652L 25.1935 10.4348L 24.8935 10.4348L 24.8935 37.5652L 25.1935 37.5652ZM 25.0435 39.5022L 2.08696 39.5022L 2.08696 39.8022L 25.0435 39.8022L 25.0435 39.5022ZM 1.93696 39.6522L 1.93696 43.8261L 2.23696 43.8261L 2.23696 39.6522L 1.93696 39.6522ZM 1.93696 43.8261C 1.93696 45.0609 2.93907 46.063 4.17391 46.063L 4.17391 45.763C 3.10476 45.763 2.23696 44.8952 2.23696 43.8261L 1.93696 43.8261ZM 4.17391 46.063L 22.9565 46.063L 22.9565 45.763L 4.17391 45.763L 4.17391 46.063ZM 22.9565 46.063C 24.1914 46.063 25.1935 45.0609 25.1935 43.8261L 24.8935 43.8261C 24.8935 44.8952 24.0257 45.763 22.9565 45.763L 22.9565 46.063ZM 25.1935 43.8261L 25.1935 39.6522L 24.8935 39.6522L 24.8935 43.8261L 25.1935 43.8261ZM 13.5652 44.7196C 12.4961 44.7196 11.6283 43.8518 11.6283 42.7826L 11.3283 42.7826C 11.3283 44.0175 12.3304 45.0196 13.5652 45.0196L 13.5652 44.7196ZM 11.6283 42.7826C 11.6283 41.7135 12.4961 40.8457 13.5652 40.8457L 13.5652 40.5457C 12.3304 40.5457 11.3283 41.5478 11.3283 42.7826L 11.6283 42.7826ZM 13.5652 40.8457C 14.6344 40.8457 15.5022 41.7135 15.5022 42.7826L 15.8022 42.7826C 15.8022 41.5478 14.8001 40.5457 13.5652 40.5457L 13.5652 40.8457ZM 15.5022 42.7826C 15.5022 43.8518 14.6344 44.7196 13.5652 44.7196L 13.5652 45.0196C 14.8001 45.0196 15.8022 44.0175 15.8022 42.7826L 15.5022 42.7826ZM 6.26087 13.7152L 8.34783 13.7152L 8.34783 13.4152L 6.26087 13.4152L 6.26087 13.7152ZM 8.34783 13.7152C 8.84193 13.7152 9.2413 14.1154 9.2413 14.6087L 9.5413 14.6087C 9.5413 13.9499 9.00781 13.4152 8.34783 13.4152L 8.34783 13.7152ZM 9.2413 14.6087L 9.2413 16.6957L 9.5413 16.6957L 9.5413 14.6087L 9.2413 14.6087ZM 9.2413 16.6957C 9.2413 17.1889 8.84193 17.5891 8.34783 17.5891L 8.34783 17.8891C 9.00781 17.8891 9.5413 17.3544 9.5413 16.6957L 9.2413 16.6957ZM 8.34783 17.5891L 6.26087 17.5891L 6.26087 17.8891L 8.34783 17.8891L 8.34783 17.5891ZM 6.26087 17.5891C 5.76677 17.5891 5.36739 17.1889 5.36739 16.6957L 5.06739 16.6957C 5.06739 17.3544 5.60089 17.8891 6.26087 17.8891L 6.26087 17.5891ZM 5.36739 16.6957L 5.36739 14.6087L 5.06739 14.6087L 5.06739 16.6957L 5.36739 16.6957ZM 5.36739 14.6087C 5.36739 14.1154 5.76677 13.7152 6.26087 13.7152L 6.26087 13.4152C 5.60089 13.4152 5.06739 13.9499 5.06739 14.6087L 5.36739 14.6087ZM 6.26087 28.3239L 8.34783 28.3239L 8.34783 28.0239L 6.26087 28.0239L 6.26087 28.3239ZM 8.34783 28.3239C 8.84203 28.3239 9.2413 28.7232 9.2413 29.2174L 9.5413 29.2174C 9.5413 28.5575 9.00771 28.0239 8.34783 28.0239L 8.34783 28.3239ZM 9.2413 29.2174L 9.2413 31.3043L 9.5413 31.3043L 9.5413 29.2174L 9.2413 29.2174ZM 9.2413 31.3043C 9.2413 31.7985 8.84203 32.1978 8.34783 32.1978L 8.34783 32.4978C 9.00771 32.4978 9.5413 31.9642 9.5413 31.3043L 9.2413 31.3043ZM 8.34783 32.1978L 6.26087 32.1978L 6.26087 32.4978L 8.34783 32.4978L 8.34783 32.1978ZM 6.26087 32.1978C 5.76667 32.1978 5.36739 31.7985 5.36739 31.3043L 5.06739 31.3043C 5.06739 31.9642 5.60098 32.4978 6.26087 32.4978L 6.26087 32.1978ZM 5.36739 31.3043L 5.36739 29.2174L 5.06739 29.2174L 5.06739 31.3043L 5.36739 31.3043ZM 5.36739 29.2174C 5.36739 28.7232 5.76667 28.3239 6.26087 28.3239L 6.26087 28.0239C 5.60098 28.0239 5.06739 28.5575 5.06739 29.2174L 5.36739 29.2174ZM 12.5217 13.7152L 14.6087 13.7152L 14.6087 13.4152L 12.5217 13.4152L 12.5217 13.7152ZM 14.6087 13.7152C 15.1028 13.7152 15.5022 14.1154 15.5022 14.6087L 15.8022 14.6087C 15.8022 13.9499 15.2687 13.4152 14.6087 13.4152L 14.6087 13.7152ZM 15.5022 14.6087L 15.5022 16.6957L 15.8022 16.6957L 15.8022 14.6087L 15.5022 14.6087ZM 15.5022 16.6957C 15.5022 17.1889 15.1028 17.5891 14.6087 17.5891L 14.6087 17.8891C 15.2687 17.8891 15.8022 17.3544 15.8022 16.6957L 15.5022 16.6957ZM 14.6087 17.5891L 12.5217 17.5891L 12.5217 17.8891L 14.6087 17.8891L 14.6087 17.5891ZM 12.5217 17.5891C 12.0276 17.5891 11.6283 17.1889 11.6283 16.6957L 11.3283 16.6957C 11.3283 17.3544 11.8618 17.8891 12.5217 17.8891L 12.5217 17.5891ZM 11.6283 16.6957L 11.6283 14.6087L 11.3283 14.6087L 11.3283 16.6957L 11.6283 16.6957ZM 11.6283 14.6087C 11.6283 14.1154 12.0276 13.7152 12.5217 13.7152L 12.5217 13.4152C 11.8618 13.4152 11.3283 13.9499 11.3283 14.6087L 11.6283 14.6087ZM 12.5217 21.0196L 14.6087 21.0196L 14.6087 20.7196L 12.5217 20.7196L 12.5217 21.0196ZM 14.6087 21.0196C 15.1028 21.0196 15.5022 21.4198 15.5022 21.913L 15.8022 21.913C 15.8022 21.2543 15.2687 20.7196 14.6087 20.7196L 14.6087 21.0196ZM 15.5022 21.913L 15.5022 24L 15.8022 24L 15.8022 21.913L 15.5022 21.913ZM 15.5022 24C 15.5022 24.4942 15.1029 24.8935 14.6087 24.8935L 14.6087 25.1935C 15.2686 25.1935 15.8022 24.6599 15.8022 24L 15.5022 24ZM 14.6087 24.8935L 12.5217 24.8935L 12.5217 25.1935L 14.6087 25.1935L 14.6087 24.8935ZM 12.5217 24.8935C 12.0275 24.8935 11.6283 24.4942 11.6283 24L 11.3283 24C 11.3283 24.6599 11.8619 25.1935 12.5217 25.1935L 12.5217 24.8935ZM 11.6283 24L 11.6283 21.913L 11.3283 21.913L 11.3283 24L 11.6283 24ZM 11.6283 21.913C 11.6283 21.4198 12.0276 21.0196 12.5217 21.0196L 12.5217 20.7196C 11.8618 20.7196 11.3283 21.2543 11.3283 21.913L 11.6283 21.913ZM 12.5217 28.3239L 14.6087 28.3239L 14.6087 28.0239L 12.5217 28.0239L 12.5217 28.3239ZM 14.6087 28.3239C 15.1029 28.3239 15.5022 28.7232 15.5022 29.2174L 15.8022 29.2174C 15.8022 28.5575 15.2686 28.0239 14.6087 28.0239L 14.6087 28.3239ZM 15.5022 29.2174L 15.5022 31.3043L 15.8022 31.3043L 15.8022 29.2174L 15.5022 29.2174ZM 15.5022 31.3043C 15.5022 31.7985 15.1029 32.1978 14.6087 32.1978L 14.6087 32.4978C 15.2686 32.4978 15.8022 31.9642 15.8022 31.3043L 15.5022 31.3043ZM 14.6087 32.1978L 12.5217 32.1978L 12.5217 32.4978L 14.6087 32.4978L 14.6087 32.1978ZM 12.5217 32.1978C 12.0275 32.1978 11.6283 31.7985 11.6283 31.3043L 11.3283 31.3043C 11.3283 31.9642 11.8619 32.4978 12.5217 32.4978L 12.5217 32.1978ZM 11.6283 31.3043L 11.6283 29.2174L 11.3283 29.2174L 11.3283 31.3043L 11.6283 31.3043ZM 11.6283 29.2174C 11.6283 28.7232 12.0275 28.3239 12.5217 28.3239L 12.5217 28.0239C 11.8619 28.0239 11.3283 28.5575 11.3283 29.2174L 11.6283 29.2174ZM 18.7826 13.7152L 20.8696 13.7152L 20.8696 13.4152L 18.7826 13.4152L 18.7826 13.7152ZM 20.8696 13.7152C 21.3637 13.7152 21.763 14.1154 21.763 14.6087L 22.063 14.6087C 22.063 13.9499 21.5296 13.4152 20.8696 13.4152L 20.8696 13.7152ZM 21.763 14.6087L 21.763 16.6957L 22.063 16.6957L 22.063 14.6087L 21.763 14.6087ZM 21.763 16.6957C 21.763 17.1889 21.3637 17.5891 20.8696 17.5891L 20.8696 17.8891C 21.5296 17.8891 22.063 17.3544 22.063 16.6957L 21.763 16.6957ZM 20.8696 17.5891L 18.7826 17.5891L 18.7826 17.8891L 20.8696 17.8891L 20.8696 17.5891ZM 18.7826 17.5891C 18.2885 17.5891 17.8891 17.1889 17.8891 16.6957L 17.5891 16.6957C 17.5891 17.3544 18.1226 17.8891 18.7826 17.8891L 18.7826 17.5891ZM 17.8891 16.6957L 17.8891 14.6087L 17.5891 14.6087L 17.5891 16.6957L 17.8891 16.6957ZM 17.8891 14.6087C 17.8891 14.1154 18.2885 13.7152 18.7826 13.7152L 18.7826 13.4152C 18.1226 13.4152 17.5891 13.9499 17.5891 14.6087L 17.8891 14.6087ZM 18.7826 21.0196L 20.8696 21.0196L 20.8696 20.7196L 18.7826 20.7196L 18.7826 21.0196ZM 20.8696 21.0196C 21.3637 21.0196 21.763 21.4198 21.763 21.913L 22.063 21.913C 22.063 21.2543 21.5296 20.7196 20.8696 20.7196L 20.8696 21.0196ZM 21.763 21.913L 21.763 24L 22.063 24L 22.063 21.913L 21.763 21.913ZM 21.763 24C 21.763 24.4942 21.3638 24.8935 20.8696 24.8935L 20.8696 25.1935C 21.5295 25.1935 22.063 24.6599 22.063 24L 21.763 24ZM 20.8696 24.8935L 18.7826 24.8935L 18.7826 25.1935L 20.8696 25.1935L 20.8696 24.8935ZM 18.7826 24.8935C 18.2884 24.8935 17.8891 24.4942 17.8891 24L 17.5891 24C 17.5891 24.6599 18.1227 25.1935 18.7826 25.1935L 18.7826 24.8935ZM 17.8891 24L 17.8891 21.913L 17.5891 21.913L 17.5891 24L 17.8891 24ZM 17.8891 21.913C 17.8891 21.4198 18.2885 21.0196 18.7826 21.0196L 18.7826 20.7196C 18.1226 20.7196 17.5891 21.2543 17.5891 21.913L 17.8891 21.913ZM 10.4348 4.32391L 16.6957 4.32391L 16.6957 4.02391L 10.4348 4.02391L 10.4348 4.32391ZM 16.6957 4.32391C 17.1898 4.32391 17.5891 4.72414 17.5891 5.21739L 17.8891 5.21739C 17.8891 4.55865 17.3556 4.02391 16.6957 4.02391L 16.6957 4.32391ZM 17.5891 5.21739C 17.5891 5.71065 17.1898 6.11087 16.6957 6.11087L 16.6957 6.41087C 17.3556 6.41087 17.8891 5.87614 17.8891 5.21739L 17.5891 5.21739ZM 16.6957 6.11087L 10.4348 6.11087L 10.4348 6.41087L 16.6957 6.41087L 16.6957 6.11087ZM 10.4348 6.11087C 9.94068 6.11087 9.5413 5.71065 9.5413 5.21739L 9.2413 5.21739C 9.2413 5.87614 9.7748 6.41087 10.4348 6.41087L 10.4348 6.11087ZM 9.5413 5.21739C 9.5413 4.72414 9.94068 4.32391 10.4348 4.32391L 10.4348 4.02391C 9.7748 4.02391 9.2413 4.55865 9.2413 5.21739L 9.5413 5.21739Z"></path>
    <path id="path2_fill" d="M 3.13043 0L 1.04348 0C 0.466435 0 0 0.467479 0 1.04348L 0 3.13044C 0 3.70748 0.466435 4.17391 1.04348 4.17391L 3.13043 4.17391C 3.70748 4.17391 4.17391 3.70748 4.17391 3.13044L 4.17391 1.04348C 4.17391 0.467479 3.70748 0 3.13043 0Z"></path>
  </defs>
</svg>
