<?xml version="1.0" encoding="UTF-8"?>
<svg xmlns="http://www.w3.org/2000/svg" xmlns:xlink="http://www.w3.org/1999/xlink" width="38" height="48" viewBox="0 0 38 48">
  <title>graphic-design</title>
  <desc>Created using Figma</desc>
  <g id="Canvas" transform="translate(388 14)">
    <g id="graphic-design">
      <g id="if_art-tools_1291734">
        <g id="People">
          <g id="Icon 22">
            <g id="art tools">
              <use xlink:href="#path0_fill" transform="translate(-388 -14)" fill="#222222"></use>
            </g>
            <g id="art tools">
              <use xlink:href="#path1_fill" transform="translate(-372.286 -13.9804)" fill="#27B1F2"></use>
              <use xlink:href="#path2_fill" transform="translate(-372.286 -13.9804)" fill="#27B1F2"></use>
            </g>
          </g>
        </g>
      </g>
    </g>
  </g>
  <defs>
    <path id="path0_fill" fill-rule="evenodd" d="M 30.6429 38.4C 30.2091 38.4 29.8571 38.7584 29.8571 39.2L 29.8571 40.8C 29.8571 41.2416 30.2091 41.6 30.6429 41.6C 31.0766 41.6 31.4286 41.2416 31.4286 40.8L 31.4286 39.2C 31.4286 38.7584 31.0766 38.4 30.6429 38.4ZM 31.4286 29.6C 31.4286 29.1584 31.0766 28.8 30.6429 28.8C 30.2091 28.8 29.8571 29.1584 29.8571 29.6L 29.8571 36C 29.8571 36.4416 30.2091 36.8 30.6429 36.8C 31.0766 36.8 31.4286 36.4416 31.4286 36L 31.4286 29.6ZM 36.1429 20.8L 1.57143 20.8C 0.704786 20.8 0 21.5176 0 22.4L 0 25.6C 0 26.4824 0.704786 27.2 1.57143 27.2L 1.57143 44C 1.57143 46.2056 3.33379 48 5.5 48L 32.2143 48C 34.3805 48 36.1429 46.2056 36.1429 44L 36.1429 29.6C 36.1429 29.1584 35.7909 28.8 35.3571 28.8C 34.9234 28.8 34.5714 29.1584 34.5714 29.6L 34.5714 44C 34.5714 45.3232 33.5139 46.4 32.2143 46.4L 5.5 46.4C 4.20043 46.4 3.14286 45.3232 3.14286 44L 3.14286 26.4C 3.14286 25.9584 2.79086 25.6 2.35714 25.6L 1.57143 25.6L 1.57143 22.4L 36.1429 22.4L 36.1429 25.6L 5.5 25.6C 5.06628 25.6 4.71428 25.9584 4.71428 26.4C 4.71428 26.8416 5.06628 27.2 5.5 27.2L 36.1429 27.2C 37.0095 27.2 37.7143 26.4824 37.7143 25.6L 37.7143 22.4C 37.7143 21.5176 37.0095 20.8 36.1429 20.8ZM 2.35714 19.2L 3.92857 19.2C 4.36229 19.2 4.71428 18.8416 4.71428 18.4C 4.71428 17.9584 4.36229 17.6 3.92857 17.6L 3.14286 17.6L 3.14286 16L 7.07143 16C 7.50514 16 7.85714 15.6416 7.85714 15.2C 7.85714 14.7584 7.50514 14.4 7.07143 14.4L 3.14286 14.4L 3.14286 12.8L 3.92857 12.8C 4.36229 12.8 4.71428 12.4416 4.71428 12C 4.71428 11.5584 4.36229 11.2 3.92857 11.2L 3.14286 11.2L 3.14286 9.6L 3.92857 9.6C 4.36229 9.6 4.71428 9.2416 4.71428 8.8C 4.71428 8.3584 4.36229 8 3.92857 8L 3.14286 8L 3.14286 6.4L 7.07143 6.4C 7.50514 6.4 7.85714 6.0416 7.85714 5.6C 7.85714 5.1584 7.50514 4.8 7.07143 4.8L 3.14286 4.8L 3.14286 1.6L 12.5714 1.6L 12.5714 18.4C 12.5714 18.8416 12.9234 19.2 13.3571 19.2C 13.7909 19.2 14.1429 18.8416 14.1429 18.4L 14.1429 0.8C 14.1429 0.3584 13.7909 0 13.3571 0L 2.35714 0C 1.92343 0 1.57143 0.3584 1.57143 0.8L 1.57143 18.4C 1.57143 18.8416 1.92343 19.2 2.35714 19.2ZM 30.6429 10.4L 30.6429 18.4C 30.6429 18.8416 30.9949 19.2 31.4286 19.2C 31.8623 19.2 32.2143 18.8416 32.2143 18.4L 32.2143 10.4C 32.2143 9.9584 31.8623 9.6 31.4286 9.6C 30.9949 9.6 30.6429 9.9584 30.6429 10.4ZM 35.3571 9.6C 34.9234 9.6 34.5714 9.9584 34.5714 10.4L 34.5714 18.4C 34.5714 18.8416 34.9234 19.2 35.3571 19.2C 35.7909 19.2 36.1429 18.8416 36.1429 18.4L 36.1429 10.4C 36.1429 9.9584 35.7909 9.6 35.3571 9.6ZM 27.5 19.2C 27.9337 19.2 28.2857 18.8416 28.2857 18.4L 28.2857 7.4296L 31.4286 2.3096L 33.9397 6.4L 30.6429 6.4C 30.2091 6.4 29.8571 6.7584 29.8571 7.2C 29.8571 7.6416 30.2091 8 30.6429 8L 35.3571 8C 35.6431 8 35.9056 7.8424 36.0446 7.588C 36.1829 7.3336 36.1751 7.0224 36.0234 6.776L 32.0949 0.376C 31.8073 -0.0919999 31.0499 -0.0919999 30.7623 0.376L 26.8337 6.776C 26.7559 6.9032 26.7143 7.0496 26.7143 7.2L 26.7143 18.4C 26.7143 18.8416 27.0663 19.2 27.5 19.2Z"></path>
    <path id="path1_fill" d="M 1.57143 18.3804L 1.57143 13.1532C 0.557071 12.2236 0 10.9516 0 9.5804C 0 6.1636 3.90893 0.5524 4.07471 0.3156C 4.37014 -0.1052 5.05843 -0.1052 5.35386 0.3156C 5.51964 0.5524 9.42857 6.1636 9.42857 9.5804C 9.42857 11.862 7.83671 13.8412 5.643 14.2868C 5.21793 14.3708 4.80386 14.0924 4.719 13.6588C 4.63336 13.226 4.90993 12.8044 5.33578 12.718C 6.79643 12.4204 7.85714 11.1012 7.85714 9.5804C 7.85714 7.5676 5.95493 4.1532 4.71428 2.2068C 3.47364 4.1532 1.57143 7.5676 1.57143 9.5804C 1.57143 10.5956 2.0295 11.5284 2.82779 12.1396C 3.025 12.2908 3.14286 12.5292 3.14286 12.7804L 3.14286 18.3804C 3.14286 18.822 2.79086 19.1804 2.35714 19.1804C 1.92343 19.1804 1.57143 18.822 1.57143 18.3804Z"></path>
    <path id="path2_fill" d="M 7.85714 18.3804L 7.85714 15.9804C 7.85714 15.5388 7.50514 15.1804 7.07143 15.1804C 6.63771 15.1804 6.28571 15.5388 6.28571 15.9804L 6.28571 18.3804C 6.28571 18.822 6.63771 19.1804 7.07143 19.1804C 7.50514 19.1804 7.85714 18.822 7.85714 18.3804Z"></path>
  </defs>
</svg>
