<?xml version="1.0" encoding="UTF-8"?>
<svg width="512px" height="153px" viewBox="0 0 512 153" version="1.1" xmlns="http://www.w3.org/2000/svg" xmlns:xlink="http://www.w3.org/1999/xlink">
    <!-- Generator: Sketch 54.1 (76490) - https://sketchapp.com -->
    <title>logo_dacode</title>
    <desc>Created with Sketch.</desc>
    <g id="Page-1" stroke="none" stroke-width="1" fill="none" fill-rule="evenodd">
        <g id="logo_dacode" transform="translate(0.000000, -1.000000)">
            <path d="M19.1377067,129.037653 C16.7355733,128.24832 13.8171733,127.586987 10.76224,127.586987 C5.49290667,127.586987 4.09344,128.154453 4.09344,139.78112 L4.09344,140.314453 C4.09344,147.337387 5.29664,149.986987 10.0113067,149.986987 L10.37824,149.986987 C13.4161067,149.986987 17.2603733,148.25472 19.2315733,146.71872 L19.2315733,146.671787 C19.1377067,144.88832 19.12064,142.665387 19.12064,139.764053 L19.1377067,129.037653 Z M23.1441067,139.96032 C23.1441067,145.929387 23.3147733,149.68832 23.60064,152.92672 L20.0081067,153.22112 L19.4321067,149.922987 C17.6017067,151.284053 13.77024,153.600853 9.09824,153.600853 C0.59904,153.600853 0.00170666667,146.812587 0.00170666667,139.80672 C0.00170666667,130.573653 -0.0452266667,123.981653 9.53770667,123.981653 C12.9297067,123.981653 16.33024,124.51072 19.1377067,125.743787 L19.1377067,112.13312 L23.1441067,111.74912 L23.1441067,139.96032 Z" id="Fill-1" fill="#488EFF"></path>
            <path d="M41.4250667,150.2208 C45.0090667,150.2208 49.0794667,148.740267 51.7034667,146.717867 C51.6096,145.0112 51.5584,142.9376 51.5584,140.1216 C48.2858667,139.285333 44.5013333,138.7008 41.1562667,138.7008 C36.8426667,138.7008 36.608,141.175467 36.608,144.738133 C36.608,148.5952 37.8752,150.2208 41.4250667,150.2208 M41.2245333,135.287467 C45.3418667,135.287467 49.1733333,136.264533 51.6522667,137.117867 L51.6522667,133.981867 C51.6522667,129.019733 48.9386667,127.479467 44.1429333,127.479467 C41.1562667,127.479467 38.5493333,128.0256 35.5968,129.117867 L34.7050667,125.649067 C35.2554667,125.282133 39.9061333,123.985067 44.1429333,123.985067 C51.7802667,123.985067 55.6032,126.673067 55.6032,133.981867 L55.6032,142.9632 C55.6032,145.928533 55.7738667,149.687467 56.0597333,152.925867 L52.5013333,153.220267 L51.8954667,149.8752 C49.5829333,151.7568 44.7658667,153.6 40.6058667,153.6 C36.6805333,153.6 32.5077333,152.529067 32.5077333,144.337067 C32.5077333,138.235733 34.752,135.287467 41.2245333,135.287467" id="Fill-4" fill="#488EFF"></path>
            <path d="M77.66656,123.98336 C81.35296,123.98336 85.0862933,124.96896 86.2894933,125.694293 L85.0862933,129.261227 C83.4436267,128.599893 80.0772267,127.47776 76.8260267,127.47776 C70.8014933,127.47776 69.7262933,130.967893 69.7262933,138.85696 C69.7262933,145.64096 70.15296,150.13376 76.5316267,150.13376 C81.2292267,150.13376 85.2270933,148.59776 85.2270933,148.59776 L86.4302933,151.84896 C86.4302933,151.84896 83.29856,153.598293 77.25696,153.598293 C72.8494933,153.598293 70.0292267,152.813227 67.9598933,150.355627 C66.08256,148.158293 65.6260267,143.806293 65.6260267,138.669227 C65.6260267,131.578027 66.1806933,123.98336 77.66656,123.98336" id="Fill-6" fill="#488EFF"></path>
            <path d="M114.158507,138.175147 C114.158507,130.77248 113.74464,127.43168 106.636373,127.43168 C99.1483733,127.43168 98.55104,130.77248 98.55104,138.239147 C98.55104,146.358613 98.90944,150.219947 106.39744,150.219947 C113.548373,150.219947 114.158507,146.955947 114.158507,138.175147 M106.683307,123.984213 C117.84064,123.984213 118.245973,129.309013 118.245973,138.67008 C118.245973,148.637013 116.75264,153.599147 106.303573,153.599147 C95.44064,153.599147 94.48064,148.483413 94.48064,138.857813 C94.48064,129.21088 95.5387733,123.984213 106.683307,123.984213" id="Fill-8" fill="#488EFF"></path>
            <path d="M146.475093,129.037653 C144.07296,128.24832 141.150293,127.586987 138.09536,127.586987 C132.817493,127.586987 131.418027,128.154453 131.418027,139.78112 L131.418027,140.314453 C131.418027,147.337387 132.625493,149.986987 137.344427,149.986987 L137.707093,149.986987 C140.740693,149.986987 144.59776,148.25472 146.56896,146.71872 L146.56896,146.671787 C146.475093,144.88832 146.445227,142.665387 146.445227,139.764053 L146.475093,129.037653 Z M150.47296,139.96032 C150.47296,145.929387 150.643627,149.68832 150.925227,152.92672 L147.341227,153.22112 L146.76096,149.922987 C144.939093,151.284053 141.099093,153.600853 136.43136,153.600853 C127.927893,153.600853 127.33056,146.812587 127.33056,139.80672 C127.33056,130.573653 127.27936,123.981653 136.862293,123.981653 C140.267093,123.981653 143.659093,124.51072 146.475093,125.743787 L146.475093,112.13312 L150.47296,111.74912 L150.47296,139.96032 Z" id="Fill-10" fill="#488EFF"></path>
            <path d="M179.666773,136.937387 L179.666773,134.624853 C179.666773,129.807787 178.12224,127.431253 172.532907,127.431253 C166.030507,127.431253 164.276907,129.833387 164.276907,136.937387 L179.666773,136.937387 Z M160.180907,137.449387 C160.180907,126.85952 164.38784,123.983787 172.91264,123.983787 C182.260907,123.983787 183.72864,128.58752 183.72864,136.002987 C183.72864,137.709653 183.67744,138.99392 183.583573,140.150187 C180.571307,140.295253 176.67584,140.295253 173.612373,140.295253 C170.843307,140.295253 166.265173,140.06912 164.276907,139.76192 C164.276907,146.50752 165.30944,150.164053 172.31104,150.164053 C175.980373,150.164053 179.419307,149.391787 182.260907,148.15872 L183.442773,151.610453 C183.442773,151.610453 178.651307,153.59872 172.43904,153.59872 C167.788373,153.59872 164.558507,152.783787 162.510507,150.356053 C160.658773,148.141653 160.180907,143.802453 160.180907,138.669653 L160.180907,137.449387 Z" id="Fill-13" fill="#488EFF"></path>
            <path d="M191.825067,150.408533 C191.825067,147.904 192.469333,147.293867 194.6368,147.293867 C196.881067,147.293867 197.435733,147.904 197.435733,150.408533 C197.435733,152.925867 196.881067,153.5872 194.6368,153.5872 C192.3968,153.5872 191.825067,152.977067 191.825067,150.408533" id="Fill-15" fill="#488EFF"></path>
            <path d="M224.837547,136.937387 L224.837547,134.624853 C224.837547,129.807787 223.301547,127.431253 217.712213,127.431253 C211.209813,127.431253 209.456213,129.833387 209.456213,136.937387 L224.837547,136.937387 Z M205.36448,137.449387 C205.36448,126.85952 209.571413,123.983787 218.096213,123.983787 C227.44448,123.983787 228.91648,128.58752 228.91648,136.002987 C228.91648,137.709653 228.861013,138.99392 228.767147,140.150187 C225.759147,140.295253 221.859413,140.295253 218.795947,140.295253 C216.02688,140.295253 211.448747,140.06912 209.456213,139.76192 C209.456213,146.50752 210.48448,150.164053 217.490347,150.164053 C221.15968,150.164053 224.60288,149.391787 227.44448,148.15872 L228.62208,151.610453 C228.62208,151.610453 223.83488,153.59872 217.618347,153.59872 C212.971947,153.59872 209.737813,152.783787 207.698347,150.356053 C205.83808,148.141653 205.36448,143.802453 205.36448,138.669653 L205.36448,137.449387 Z" id="Fill-17" fill="#488EFF"></path>
            <path d="M239.07072,147.441493 C241.24672,148.67456 244.783787,150.219093 249.046187,150.219093 C252.99712,150.219093 254.178987,148.48256 254.178987,144.88576 C254.178987,140.691627 252.56192,141.114027 247.31392,140.20096 C241.77152,139.22816 238.183253,138.33216 238.27712,132.218027 L238.27712,131.620693 C238.27712,125.216427 242.902187,123.915093 247.40352,123.98336 C251.503787,124.026027 255.232853,124.747093 257.378987,125.651627 L256.244053,129.274027 C254.00832,128.318293 249.741653,127.332693 247.04512,127.332693 C243.887787,127.332693 242.326187,128.023893 242.279253,131.620693 C242.228053,134.72256 243.414187,135.396693 245.167787,135.908693 C252.28032,137.931093 258.36032,135.665493 258.24512,144.868693 C258.15552,152.382293 253.76512,153.598293 248.15872,153.598293 C243.96032,153.598293 239.88992,152.24576 237.338453,150.756693 L239.07072,147.441493 Z" id="Fill-19" fill="#488EFF"></path>
            <path d="M256.120747,65.11232 C253.885013,68.7261867 251.41888,72.0029867 248.726613,74.95552 C246.025813,77.9080533 243.005013,80.4168533 239.65568,82.4861867 C236.297813,84.55552 232.581547,86.16832 228.498347,87.3117867 C224.415147,88.4637867 219.909547,89.03552 214.973013,89.03552 C208.811947,89.03552 203.03488,87.88352 197.641813,85.5709867 C192.24448,83.2584533 187.529813,80.1352533 183.485013,76.20992 C179.435947,72.28032 176.25728,67.65952 173.949013,62.3432533 C171.63648,57.02272 170.48448,51.3608533 170.48448,45.34912 C170.48448,39.3416533 171.63648,33.6797867 173.949013,28.36352 C176.25728,23.0472533 179.435947,18.4221867 183.485013,14.4925867 C187.529813,10.5629867 192.24448,7.43978667 197.641813,5.13152 C203.03488,2.81898667 208.811947,1.66698667 214.973013,1.66698667 C220.063147,1.66698667 224.645547,2.24298667 228.728747,3.39925333 C232.811947,4.55552 236.511147,6.17258667 239.826347,8.25472 C243.13728,10.3325867 246.123947,12.8584533 248.78208,15.81952 C251.440213,18.7933867 253.885013,22.0445867 256.120747,25.58592 C256.504747,26.2045867 256.581547,26.8573867 256.355413,27.5528533 C256.120747,28.2440533 255.659947,28.7517867 254.96448,29.05472 L238.55488,35.5272533 C237.782613,35.83872 237.010347,35.83872 236.242347,35.5272533 C235.47008,35.2200533 234.889813,34.7592533 234.51008,34.1405867 C232.274347,30.5992533 229.577813,27.8813867 226.42048,25.9912533 C223.25888,24.1053867 219.44448,23.1624533 214.973013,23.1624533 C212.050347,23.1624533 209.29408,23.7768533 206.712747,25.0184533 C204.127147,26.25152 201.878613,27.88992 199.954347,29.9421867 C198.025813,31.98592 196.523947,34.3624533 195.44448,37.06752 C194.365013,39.7725867 193.827413,42.5544533 193.827413,45.4088533 C193.827413,48.34432 194.365013,51.14752 195.44448,53.80992 C196.523947,56.4765867 198.025813,58.8104533 199.954347,60.8200533 C201.878613,62.8296533 204.127147,64.4552533 206.712747,65.68832 C209.29408,66.9256533 212.050347,67.5400533 214.973013,67.5400533 C219.21408,67.5400533 223.045547,66.52032 226.475947,64.4808533 C229.90208,62.43712 232.619947,59.80032 234.62528,56.56192 C235.00928,55.94752 235.568213,55.4824533 236.297813,55.1752533 C237.03168,54.8680533 237.782613,54.8680533 238.55488,55.1752533 L254.96448,61.6477867 C255.659947,61.9549867 256.120747,62.43712 256.355413,63.08992 C256.581547,63.7469867 256.504747,64.42112 256.120747,65.11232" id="Fill-21" fill="#000222"></path>
            <path d="M283.974827,45.2373333 C283.974827,48.1642667 284.512427,50.9376 285.591893,53.5573333 C286.67136,56.1728 288.151893,58.4853333 290.042027,60.4906667 C291.927893,62.496 294.14656,64.0917333 296.685227,65.2864 C299.22816,66.4810667 301.924693,67.0784 304.779093,67.0784 C307.629227,67.0784 310.32576,66.4810667 312.864427,65.2864 C315.40736,64.0917333 317.64736,62.496 319.571627,60.4906667 C321.495893,58.4853333 322.99776,56.1728 324.077227,53.5573333 C325.152427,50.9376 325.694293,48.1642667 325.694293,45.2373333 C325.694293,42.3872 325.152427,39.6309333 324.077227,36.9728 C322.99776,34.3104 321.495893,32.0021333 319.571627,30.0352 C317.64736,28.0768 315.40736,26.4938667 312.864427,25.2992 C310.32576,24.1045333 307.629227,23.5072 304.779093,23.5072 C301.924693,23.5072 299.22816,24.1045333 296.685227,25.2992 C294.14656,26.4938667 291.927893,28.0768 290.042027,30.0352 C288.151893,32.0021333 286.67136,34.3104 285.591893,36.9728 C284.512427,39.6309333 283.974827,42.3872 283.974827,45.2373333 M261.092693,45.2373333 C261.092693,39.2256 262.244693,33.5637333 264.557227,28.2474667 C266.86976,22.9269333 269.99296,18.2890667 273.918293,14.3210667 C277.847893,10.3488 282.468693,7.2128 287.789227,4.90026667 C293.105493,2.58773333 298.76736,1.43146667 304.779093,1.43146667 C310.78656,1.43146667 316.448427,2.58773333 321.764693,4.90026667 C327.085227,7.2128 331.723093,10.3488 335.691093,14.3210667 C339.659093,18.2890667 342.79936,22.9269333 345.111893,28.2474667 C347.424427,33.5637333 348.580693,39.2256 348.580693,45.2373333 C348.580693,51.2448 347.424427,56.9066667 345.111893,62.2229333 C342.79936,67.5434667 339.659093,72.1813333 335.691093,76.1493333 C331.723093,80.1216 327.085227,83.2576 321.764693,85.5701333 C316.448427,87.8826667 310.78656,89.0389333 304.779093,89.0389333 C298.76736,89.0389333 293.105493,87.8826667 287.789227,85.5701333 C282.468693,83.2576 277.847893,80.1216 273.918293,76.1493333 C269.99296,72.1813333 266.86976,67.5434667 264.557227,62.2229333 C262.244693,56.9066667 261.092693,51.2448 261.092693,45.2373333" id="Fill-23" fill="#000222"></path>
            <path d="M470.508373,26.9751467 L470.508373,33.24288 C470.508373,34.01088 470.772907,34.6679467 471.314773,35.2055467 C471.85664,35.7474133 472.50944,36.0119467 473.281707,36.0119467 L504.59904,36.0119467 C505.375573,36.0119467 506.024107,36.2850133 506.565973,36.8226133 C507.10784,37.36448 507.37664,38.01728 507.37664,38.7895467 L507.37664,51.91808 C507.37664,52.68608 507.10784,53.3431467 506.565973,53.8807467 C506.024107,54.4226133 505.375573,54.6871467 504.59904,54.6871467 L473.281707,54.6871467 C472.50944,54.6871467 471.85664,54.9602133 471.314773,55.4978133 C470.772907,56.03968 470.508373,58.1047467 470.508373,58.8770133 L470.508373,63.2674133 C470.508373,64.03968 470.772907,64.69248 471.314773,65.23008 C471.85664,65.7719467 472.50944,66.03648 473.281707,66.03648 L509.224107,66.03648 C509.992107,66.03648 510.649173,66.3095467 511.19104,66.8514133 C511.724373,67.3890133 512.001707,68.0418133 512.001707,68.81408 L512.001707,84.76288 C512.001707,85.5351467 511.724373,86.1879467 511.19104,86.7255467 C510.649173,87.2674133 509.992107,87.5362133 509.224107,87.5362133 L450.399573,87.5362133 C449.62304,87.5362133 448.974507,87.2674133 448.43264,86.7255467 C447.890773,86.1879467 447.62624,85.5351467 447.62624,84.76288 L447.62624,5.71008 C447.62624,4.94208 447.890773,4.28501333 448.43264,3.74741333 C448.974507,3.20981333 449.62304,2.93674667 450.399573,2.93674667 L509.224107,2.93674667 C509.992107,2.93674667 510.649173,3.20981333 511.19104,3.74741333 C511.724373,4.28501333 512.001707,4.94208 512.001707,5.71008 L512.001707,21.42848 C512.001707,22.2007467 511.724373,22.8535467 511.19104,23.3911467 C510.649173,23.9330133 509.992107,24.2018133 509.224107,24.2018133 L473.281707,24.2018133 C472.50944,24.2018133 471.85664,24.4706133 471.314773,25.01248 C470.772907,25.55008 470.508373,26.20288 470.508373,26.9751467" id="Fill-26" fill="#000222"></path>
            <path d="M133.995947,1.94602667 L114.155947,1.94602667 C112.995413,1.94602667 111.97568,2.69696 111.61728,3.78922667 L79.9671467,84.2542933 C79.69408,85.0692267 79.8519467,85.96096 80.3426133,86.6734933 C80.8631467,87.3732267 81.6738133,87.7870933 82.52288,87.7870933 L98.7746133,87.7870933 C99.9394133,87.7870933 100.971947,87.0190933 101.334613,85.9140267 L134.43968,1.97162667 C134.31168,1.94602667 134.149547,1.94602667 133.995947,1.94602667" id="Fill-29" fill="#000222"></path>
            <path d="M143.924907,21.4293333 L134.57664,45.1392 L147.10784,70.5002667 L124.56704,70.4874667 L118.533973,85.9114667 C118.312107,86.5728 117.851307,87.1232 117.253973,87.4432 L117.185707,87.7888 L156.315307,87.7888 L156.34944,87.7888 L167.77984,87.7888 L167.826773,87.7888 L167.90784,87.7888 C167.94624,87.7632 167.967573,87.7632 168.001707,87.7632 C168.057173,87.7632 168.146773,87.7589333 168.21504,87.7290667 L168.249173,87.7290667 C168.936107,87.6010667 169.567573,87.2426667 169.96864,86.6538667 C170.46784,85.9242667 170.600107,85.0282667 170.31424,84.2005333 L143.924907,21.4293333 Z" id="Fill-31" fill="#000222"></path>
            <path d="M67.3668267,13.56672 C59.6612267,6.47978667 49.76256,2.93845333 37.66656,2.93845333 L6.11882667,2.93845333 C5.34656,2.93845333 4.68949333,3.20725333 4.15189333,3.74485333 C3.61429333,4.28245333 3.34122667,4.94378667 3.34122667,5.70752 L3.34122667,24.43392 L29.00096,24.43392 L37.66656,24.43392 C39.8254933,24.43392 42.0356267,24.70272 44.3140267,25.24032 C46.5838933,25.7821867 48.6660267,26.80192 50.55616,28.3037867 C52.4420267,29.80992 53.9780267,31.9261867 55.17696,34.6568533 C56.3716267,37.3960533 56.9646933,40.95872 56.9646933,45.34912 C56.9646933,49.7437867 56.3716267,53.3064533 55.17696,56.0413867 C53.9780267,58.7805867 52.4590933,60.8968533 50.6116267,62.39872 C48.76416,63.9005867 46.67776,64.9245867 44.3694933,65.4621867 C42.05696,65.9997867 39.8254933,66.2728533 37.66656,66.2728533 L29.00096,66.2728533 C28.2286933,66.2728533 27.5716267,65.9997867 27.0340267,65.4621867 C26.4964267,64.9245867 26.22336,64.26752 26.22336,63.4952533 L26.22336,39.7341867 L3.34122667,39.7341867 L3.34122667,84.7645867 C3.34122667,85.5325867 3.61429333,86.1896533 4.15189333,86.7229867 C4.68949333,87.2648533 5.34656,87.53792 6.11882667,87.53792 L37.66656,87.53792 C43.6740267,87.53792 49.1652267,86.6504533 54.1358933,84.87552 C59.1022933,83.1048533 63.5182933,80.48512 67.3668267,77.01632 C71.5310933,73.1677867 74.6884267,68.5640533 76.84736,63.2093867 C79.0020267,57.85472 80.0814933,51.86432 80.0814933,45.2381867 C80.0814933,38.6077867 79.0020267,32.63872 76.84736,27.3224533 C74.6884267,22.0061867 71.5310933,17.41952 67.3668267,13.56672" id="Fill-33" fill="#000222"></path>
            <path d="M434.216533,27.3207467 C432.0576,22.00448 428.900267,17.42208 424.740267,13.5650133 C417.034667,6.47808 407.131733,2.93674667 395.04,2.93674667 L363.488,2.93674667 C362.715733,2.93674667 362.0544,3.20981333 361.521067,3.74741333 C360.9792,4.28501333 360.714667,4.94208 360.714667,5.71008 L360.714667,24.4322133 L386.3744,24.4322133 L388.273067,24.4322133 L395.04,24.4322133 C397.198933,24.4322133 399.409067,24.70528 401.6832,25.24288 C403.957333,25.7847467 406.039467,26.8002133 407.925333,28.30208 C409.815467,29.8082133 411.351467,31.92448 412.5504,34.6594133 C413.7408,37.3943467 414.3424,40.9570133 414.3424,45.35168 C414.3424,49.74208 413.7408,53.3090133 412.5504,56.03968 C411.351467,58.77888 409.832533,60.8951467 407.985067,62.40128 C406.133333,63.89888 404.059733,64.92288 401.742933,65.46048 C399.434667,65.99808 397.198933,66.2711467 395.04,66.2711467 L386.3744,66.2711467 C385.597867,66.2711467 384.9408,65.99808 384.407467,65.46048 C383.8656,64.92288 383.601067,64.2658133 383.601067,63.4978133 L383.601067,39.73248 L360.714667,39.73248 L360.714667,84.76288 C360.714667,85.5351467 360.9792,86.1879467 361.521067,86.7255467 C362.0544,87.2674133 362.715733,87.5362133 363.488,87.5362133 L395.04,87.5362133 C401.051733,87.5362133 406.542933,86.6487467 411.509333,84.8738133 C416.475733,83.1031467 420.891733,80.4834133 424.740267,77.0146133 C428.900267,73.16608 432.0576,68.5623467 434.216533,63.20768 C436.375467,57.8530133 437.4592,51.8626133 437.4592,45.23648 C437.4592,38.6103467 436.375467,32.6370133 434.216533,27.3207467" id="Fill-35" fill="#000222"></path>
        </g>
    </g>
</svg>