<?xml version="1.0" encoding="UTF-8"?>
<svg xmlns="http://www.w3.org/2000/svg" xmlns:xlink="http://www.w3.org/1999/xlink" width="48" height="48" viewBox="0 0 48 48">
  <title>web-development</title>
  <desc>Created using Figma</desc>
  <g id="Canvas" transform="translate(124 14)">
    <g id="web-development">
      <g id="if_imac_1291756">
        <g id="People">
          <g id="Icon 28">
            <g id="imac">
              <use xlink:href="#path0_fill" transform="translate(-124 -14)" fill="#222222"></use>
            </g>
          </g>
        </g>
        <g id="code">
          <use xlink:href="#path1_fill" transform="translate(-110.5 -3.5)" fill="#27B1F2"></use>
          <use xlink:href="#path2_fill" transform="translate(-110.5 -3.5)" fill="#27B1F2"></use>
          <use xlink:href="#path3_fill" transform="translate(-110.5 -3.5)" fill="#27B1F2"></use>
        </g>
      </g>
    </g>
  </g>
  <defs>
    <path id="path0_fill" fill-rule="evenodd" d="M 31.2 43.2L 28.8 43.2L 28.8 39.2C 28.8 38.7576 28.4424 38.4 28 38.4C 27.5576 38.4 27.2 38.7576 27.2 39.2L 27.2 44C 27.2 44.4424 27.5576 44.8 28 44.8L 31.2 44.8C 32.0976 44.8 33.036 45.5312 33.4192 46.4L 14.58 46.4C 14.964 45.5312 15.9016 44.8 16.8 44.8L 24.8 44.8C 25.2424 44.8 25.6 44.4424 25.6 44C 25.6 43.5576 25.2424 43.2 24.8 43.2L 20.8 43.2L 20.8 39.2C 20.8 38.7576 20.4416 38.4 20 38.4C 19.5584 38.4 19.2 38.7576 19.2 39.2L 19.2 43.2L 16.8 43.2C 14.744 43.2 12.8 45.144 12.8 47.2C 12.8 47.6424 13.1584 48 13.6 48L 34.4 48C 34.8424 48 35.2 47.6424 35.2 47.2C 35.2 45.144 33.256 43.2 31.2 43.2ZM 22.4 32C 22.4 32.8824 23.1176 33.6 24 33.6C 24.8824 33.6 25.6 32.8824 25.6 32C 25.6 31.1176 24.8824 30.4 24 30.4C 23.1176 30.4 22.4 31.1176 22.4 32ZM 48 4L 48 32.8C 48 35.0432 46.2432 36.8 44 36.8L 4 36.8C 1.7568 36.8 0 35.0432 0 32.8L 0 28C 0 27.5576 0.3584 27.2 0.8 27.2L 44 27.2C 44.4424 27.2 44.8 27.5576 44.8 28C 44.8 28.4424 44.4424 28.8 44 28.8L 1.6 28.8L 1.6 32.8C 1.6 34.168 2.632 35.2 4 35.2L 44 35.2C 45.368 35.2 46.4 34.168 46.4 32.8L 46.4 4C 46.4 2.6768 45.3232 1.6 44 1.6L 4 1.6C 2.6016 1.6 1.6808 2.848 1.5984 4.0544L 1.6 24.8C 1.6 25.2424 1.2416 25.6 0.8 25.6C 0.3584 25.6 0 25.2424 0 24.8L 0 4C 0.1528 1.7328 1.9088 0 4 0L 44 0C 46.2056 0 48 1.7944 48 4Z"></path>
    <path id="path1_fill" d="M 6.16264 0.263672L 2.09516 5.47852L 6.16264 10.5762L 3.6034 10.5762L 0.307108 6.43555C 0.102369 6.19466 0 5.87565 0 5.47852C 0 5.29622 0.0250236 5.1237 0.0750709 4.96094C 0.129668 4.79818 0.202464 4.6582 0.293459 4.54102L 3.6307 0.263672L 6.16264 0.263672Z"></path>
    <path id="path2_fill" d="M 10.6191 11.25L 8.83789 11.25L 10.585 0L 12.3662 0L 10.6191 11.25Z"></path>
    <path id="path3_fill" d="M 17.5734 0.263672L 20.9175 4.54102C 21.0085 4.6582 21.079 4.79818 21.129 4.96094C 21.1836 5.1237 21.2109 5.29622 21.2109 5.47852C 21.2109 5.66732 21.1836 5.84635 21.129 6.01562C 21.0744 6.17839 20.9994 6.31836 20.9038 6.43555L 17.6007 10.5762L 15.0483 10.5762L 19.1158 5.47852L 15.0483 0.263672L 17.5734 0.263672Z"></path>
  </defs>
</svg>