<?xml version="1.0" encoding="UTF-8"?>
<svg width="279px" height="438px" viewBox="0 0 279 438" version="1.1" xmlns="http://www.w3.org/2000/svg" xmlns:xlink="http://www.w3.org/1999/xlink">
    <title>Group 7</title>
    <g id="Page-1" stroke="none" stroke-width="1" fill="none" fill-rule="evenodd">
        <g id="Artboard" transform="translate(-1001.000000, -741.000000)">
            <g id="Group-7" transform="translate(1002.000000, 742.000000)">
                <path d="M0,437 L0,32 C0,14.326888 14.326888,0 32,0 L245,0 C262.673112,0 277,14.326888 277,32 L277,386 L277,437" id="Path" stroke="#DCDCDC" fill="#FFFFFF"></path>
                <g id="Group-5" transform="translate(42.000000, 49.000000)">
                    <g id="Group-3">
                        <rect id="Rectangle" stroke="#1C97FF" stroke-width="4" fill="#1C97FF" opacity="0.200000003" x="0" y="0" width="194" height="177" rx="2"></rect>
                        <g id="iconfinder_house-20_3940049" transform="translate(63.000000, 32.000000)">
                            <path d="M44.1000016,8.40000057 L23.1000016,8.40000057 L23.1000016,8.40000057 C23.1000016,3.78000026 26.8800018,0 31.5000021,0 L35.7000024,0 C40.3200027,0 44.1000016,3.78000026 44.1000016,8.40000057 L44.1000016,8.40000057 Z" id="Path" stroke="#222222" stroke-width="4.20000029" stroke-linecap="round" stroke-linejoin="round"></path>
                            <path d="M58.800004,16.8000011 L8.40000057,16.8000011 L8.40000057,12.6000009 C10.0800007,10.9200007 10.9200007,10.0800007 12.6000009,8.40000057 L54.6000037,8.40000057 C56.2800038,10.0800007 57.1200039,10.9200007 58.800004,12.6000009 L58.800004,16.8000011 Z" id="Path" stroke="#222222" stroke-width="4.20000029" stroke-linecap="round" stroke-linejoin="round"></path>
                            <circle id="Oval" stroke="#222222" stroke-width="4.20000029" stroke-linecap="round" stroke-linejoin="round" cx="33.6000023" cy="37.8000026" r="12.6000009"></circle>
                            <polyline id="Path" stroke="#222222" stroke-width="4.20000029" stroke-linecap="round" stroke-linejoin="round" points="31.5000021 33.6000023 33.6000023 37.8000026 35.7000024 37.8000026"></polyline>
                            <polyline id="Path" stroke="#222222" stroke-width="4.20000029" stroke-linecap="round" stroke-linejoin="round" points="12.6000009 92.4000063 12.6000009 16.8000011 54.6000037 16.8000011 54.6000037 92.4000063"></polyline>
                            <line x1="8.40000057" y1="58.800004" x2="58.800004" y2="58.800004" id="Path" stroke="#222222" stroke-width="4.20000029" stroke-linecap="round" stroke-linejoin="round"></line>
                            <line x1="33.6000023" y1="58.800004" x2="31.5000021" y2="69.3000047" id="Path" stroke="#222222" stroke-width="4.20000029" stroke-linecap="round" stroke-linejoin="round"></line>
                            <circle id="Oval" fill="#222222" fill-rule="nonzero" cx="31.5000021" cy="69.3000047" r="4.20000029"></circle>
                            <path d="M59.6400041,101.640007 L59.6400041,98.7000067 C57.3300039,96.1800066 56.0700038,94.9200065 53.7600037,92.4000063 L13.4400009,92.4000063 C11.1300008,94.9200065 9.87000067,96.1800066 7.56000051,98.7000067 L7.56000051,101.640007 L3.99000027,101.640007 C2.52000017,103.320007 1.68000011,104.160007 -3.73034962e-15,105.840007 L-3.73034962e-15,113.400006 L11.1300008,113.400006 L13.0200009,113.400006 C13.0200009,106.890007 17.2200012,101.640007 22.2600015,101.640007 L44.730003,101.640007 C49.9800034,101.640007 53.9700037,106.890007 53.9700037,113.400006 L55.8600038,113.400006 L67.2000046,113.400006 L67.2000046,105.840007 C65.7300045,104.160007 64.8900044,103.320007 63.2100043,101.640007 L59.6400041,101.640007 Z" id="Path" stroke="#222222" stroke-width="4.20000029" stroke-linecap="round" stroke-linejoin="round"></path>
                            <polyline id="Path" stroke="#222222" stroke-width="4.20000029" stroke-linecap="round" stroke-linejoin="round" points="21.0000014 58.800004 21.0000014 84.0000057 46.2000031 84.0000057 46.2000031 58.800004"></polyline>
                        </g>
                    </g>
                    <g id="Group-4" transform="translate(0.000000, 201.000000)">
                        <g id="Group" transform="translate(0.000000, 112.000000)">
                            <rect id="Rectangle-Copy-2" fill="#1C97FF" x="0" y="0" width="140" height="43" rx="2"></rect>
                            <text id="Add-to-cart!" font-family="Gilroy-ExtraBold, Gilroy" font-size="15" font-weight="600" fill="#FFFFFF">
                                <tspan x="28" y="27.1142857">Add to cart!</tspan>
                            </text>
                        </g>
                        <g id="Group-2" fill="#222222">
                            <rect id="Rectangle" x="0" y="0" width="146" height="12" rx="2"></rect>
                            <rect id="Rectangle-Copy" opacity="0.5" x="0" y="24" width="126" height="4" rx="2"></rect>
                        </g>
                        <text id="320-€" font-family="Gilroy-ExtraBold, Gilroy" font-size="39" font-weight="600" fill="#222323">
                            <tspan x="0" y="89">320</tspan>
                            <tspan x="66.027" y="89" font-size="22.5"> €</tspan>
                        </text>
                    </g>
                </g>
                <path d="M175,0.5 C178.122714,0.5 180.954734,1.74462712 183.027024,3.76489021 C184.990332,5.67890768 186.271808,8.28909516 186.472391,11.1966697 L186.472391,11.1966697 L90.5107431,11.4983917 C90.6384708,8.52227015 91.8973222,5.83922186 93.868272,3.86827202 C95.9493627,1.78718134 98.8243627,0.5 102,0.5 L102,0.5 Z" id="Rectangle" stroke="#DCDCDC" fill="#FFFFFF" transform="translate(138.500000, 6.000000) rotate(-180.000000) translate(-138.500000, -6.000000) "></path>
            </g>
        </g>
    </g>
</svg>