<svg width="32" height="28" viewBox="0 0 32 28" fill="none" xmlns="http://www.w3.org/2000/svg">
<path fill-rule="evenodd" clip-rule="evenodd" d="M7.15494 21.0996C6.77959 20.7224 6.26939 20.5103 5.73726 20.5103H3.19833C2.55369 20.5103 2 19.9704 2 19.2906V3.21974C2 2.52895 2.54985 2 3.18944 2H28.8106C29.4455 2 30 2.535 30 3.21974V19.2906C30 19.9781 29.4512 20.5103 28.8039 20.5103H16.6627C16.1306 20.5103 15.6204 20.7224 15.2451 21.0996L11.2 25.1646L7.15494 21.0996ZM12.3314 26.8631L12.6108 26.5823L16.6627 22.5103H28.8039C30.5712 22.5103 32 21.0671 32 19.2906V3.21974C32 1.45378 30.5733 0 28.8106 0H3.18944C1.42493 0 0 1.44484 0 3.21974V19.2906C0 21.0585 1.43276 22.5103 3.19833 22.5103H5.73726L9.78925 26.5823L10.0686 26.8631L11.2 28L11.2 28L12.3314 26.8631ZM6.6207 11.8461C6.6207 13.0356 7.59492 14 8.7967 14C9.99847 14 10.9727 13.0356 10.9727 11.8461C10.9727 10.6566 9.99847 9.69226 8.7967 9.69226C7.59492 9.69226 6.6207 10.6566 6.6207 11.8461ZM13.824 11.8461C13.824 13.0356 14.7982 14 16 14C17.2018 14 18.176 13.0356 18.176 11.8461C18.176 10.6566 17.2018 9.69226 16 9.69226C14.7982 9.69226 13.824 10.6566 13.824 11.8461ZM21.0273 11.8461C21.0273 13.0356 22.0015 14 23.2033 14C24.4051 14 25.3793 13.0356 25.3793 11.8461C25.3793 10.6566 24.4051 9.69226 23.2033 9.69226C22.0015 9.69226 21.0273 10.6566 21.0273 11.8461Z" fill="white"/>
</svg>
